<svg xmlns="http://www.w3.org/2000/svg" xmlns:xlink="http://www.w3.org/1999/xlink" width="1080" zoomAndPan="magnify" viewBox="0 0 810 809.999993" height="1080" preserveAspectRatio="xMidYMid meet" version="1.0"><defs><clipPath id="aafbb80300"><path d="M 62 181 L 790 181 L 790 664 L 62 664 Z M 62 181 " clip-rule="nonzero"/></clipPath><clipPath id="1583924bc8"><path d="M 18.351562 246.542969 L 762.808594 168.867188 L 809.898438 620.167969 L 65.441406 697.84375 Z M 18.351562 246.542969 " clip-rule="nonzero"/></clipPath><clipPath id="beff881656"><path d="M 18.351562 246.542969 L 762.808594 168.867188 L 809.898438 620.167969 L 65.441406 697.84375 Z M 18.351562 246.542969 " clip-rule="nonzero"/></clipPath><clipPath id="469d41cbb1"><path d="M 6 220 L 393 220 L 393 629 L 6 629 Z M 6 220 " clip-rule="nonzero"/></clipPath><clipPath id="ee2f345889"><path d="M -119.054688 302.148438 L 307.152344 140.03125 L 438.074219 484.21875 L 11.867188 646.339844 Z M -119.054688 302.148438 " clip-rule="nonzero"/></clipPath><clipPath id="055aa11856"><path d="M -119.054688 302.148438 L 307.152344 140.03125 L 438.074219 484.21875 L 11.867188 646.339844 Z M -119.054688 302.148438 " clip-rule="nonzero"/></clipPath></defs><g clip-path="url(#aafbb80300)"><g clip-path="url(#1583924bc8)"><g clip-path="url(#beff881656)"><path fill="#5271ff" d="M 651.714844 342.4375 L 642.816406 181.386719 L 520.390625 286.425781 L 364.460938 245.109375 L 426.53125 393.996094 C 401.113281 444.808594 288.824219 544.484375 288.824219 544.484375 C 290.039062 543.601562 426.519531 453.808594 472.6875 398.117188 L 434.296875 306.042969 L 530.738281 331.589844 L 606.445312 266.636719 L 611.941406 366.25 L 697.113281 418.175781 L 604.085938 454.191406 L 581.011719 551.234375 L 518.019531 473.894531 C 290.441406 595.042969 62.246094 663.226562 62.246094 663.226562 C 62.246094 663.226562 224.894531 636.242188 499.839844 516.523438 L 601.714844 641.582031 L 639.007812 484.660156 L 789.429688 426.417969 Z M 651.714844 342.4375 " fill-opacity="1" fill-rule="nonzero"/></g></g></g><g clip-path="url(#469d41cbb1)"><g clip-path="url(#ee2f345889)"><g clip-path="url(#055aa11856)"><path fill="#000000" d="M 151.765625 592.285156 C 101.367188 611.453125 51.78125 623.515625 6.683594 628.707031 C 36.621094 622.246094 67.765625 613.046875 99.230469 601.078125 C 256.925781 541.09375 362.628906 434.246094 335.308594 362.421875 C 316.726562 313.574219 241.359375 293.527344 145.382812 304.574219 C 265.511719 278.546875 365.980469 296.144531 387.859375 353.65625 C 415.167969 425.453125 309.464844 532.296875 151.765625 592.285156 Z M 52.445312 315.230469 L 52.046875 314.179688 C 115.003906 290.230469 115.683594 278.28125 93.875 220.941406 L 94.925781 220.542969 C 116.738281 277.878906 125.21875 286.34375 188.175781 262.398438 L 188.574219 263.453125 C 125.617188 287.398438 124.898438 299.332031 146.707031 356.667969 L 145.652344 357.070312 C 123.84375 299.734375 115.402344 291.285156 52.445312 315.230469 " fill-opacity="1" fill-rule="evenodd"/></g></g></g></svg>